<svg xmlns="http://www.w3.org/2000/svg" version="1.1" xmlns:xlink="http://www.w3.org/1999/xlink" xmlns:svgjs="http://svgjs.com/svgjs" width="1437" height="563" preserveAspectRatio="none" viewBox="0 0 1437 563"><g mask="url(&quot;#SvgjsMask1060&quot;)" fill="none"><rect width="1437" height="563" x="0" y="0" fill="#0e2a47"></rect><path d="M-93.79 341.28L-93.79 341.28" stroke="#132e65" stroke-width="1.5"></path><path d="M-93.79 341.28L103.39 349.68" stroke="#132e65" stroke-width="1.5"></path><path d="M-93.79 341.28L53.02 548.41" stroke="#132e65" stroke-width="1.5"></path><path d="M-93.79 341.28L-60.61 643.28" stroke="#132e65" stroke-width="1.5"></path><path d="M-60.61 643.28L-60.61 643.28" stroke="#132e65" stroke-width="1.5"></path><path d="M-60.61 643.28L53.02 548.41" stroke="#132e65" stroke-width="1.5"></path><path d="M-60.61 643.28L81.9 690.88" stroke="#132e65" stroke-width="1.5"></path><path d="M-60.61 643.28L226.74 555.41" stroke="#132e65" stroke-width="1.5"></path><path d="M-60.61 643.28L256.25 674.09" stroke="#132e65" stroke-width="1.5"></path><path d="M-60.61 643.28L103.39 349.68" stroke="#132e65" stroke-width="1.5"></path><path d="M103.39 349.68L103.39 349.68" stroke="#132e65" stroke-width="1.5"></path><path d="M103.39 349.68L232.23 411.81" stroke="#132e65" stroke-width="1.5"></path><path d="M53.02 548.41L53.02 548.41" stroke="#132e65" stroke-width="1.5"></path><path d="M53.02 548.41L81.9 690.88" stroke="#132e65" stroke-width="1.5"></path><path d="M53.02 548.41L226.74 555.41" stroke="#132e65" stroke-width="1.5"></path><path d="M53.02 548.41L103.39 349.68" stroke="#132e65" stroke-width="1.5"></path><path d="M53.02 548.41L232.23 411.81" stroke="#132e65" stroke-width="1.5"></path><path d="M53.02 548.41L256.25 674.09" stroke="#132e65" stroke-width="1.5"></path><path d="M81.9 690.88L81.9 690.88" stroke="#132e65" stroke-width="1.5"></path><path d="M81.9 690.88L256.25 674.09" stroke="#132e65" stroke-width="1.5"></path><path d="M232.23 411.81L232.23 411.81" stroke="#132e65" stroke-width="1.5"></path><path d="M232.23 411.81L226.74 555.41" stroke="#132e65" stroke-width="1.5"></path><path d="M232.23 411.81L381.43 379.04" stroke="#132e65" stroke-width="1.5"></path><path d="M232.23 411.81L338.58 528.13" stroke="#132e65" stroke-width="1.5"></path><path d="M226.74 555.41L226.74 555.41" stroke="#132e65" stroke-width="1.5"></path><path d="M226.74 555.41L338.58 528.13" stroke="#132e65" stroke-width="1.5"></path><path d="M226.74 555.41L256.25 674.09" stroke="#132e65" stroke-width="1.5"></path><path d="M256.25 674.09L256.25 674.09" stroke="#132e65" stroke-width="1.5"></path><path d="M256.25 674.09L345.59 647.77" stroke="#132e65" stroke-width="1.5"></path><path d="M256.25 674.09L338.58 528.13" stroke="#132e65" stroke-width="1.5"></path><path d="M256.25 674.09L232.23 411.81" stroke="#132e65" stroke-width="1.5"></path><path d="M381.43 379.04L381.43 379.04" stroke="#132e65" stroke-width="1.5"></path><path d="M381.43 379.04L338.58 528.13" stroke="#132e65" stroke-width="1.5"></path><path d="M338.58 528.13L338.58 528.13" stroke="#132e65" stroke-width="1.5"></path><path d="M345.59 647.77L345.59 647.77" stroke="#132e65" stroke-width="1.5"></path><path d="M345.59 647.77L338.58 528.13" stroke="#132e65" stroke-width="1.5"></path><path d="M345.59 647.77L226.74 555.41" stroke="#132e65" stroke-width="1.5"></path><path d="M537.01 385.99L537.01 385.99" stroke="#132e65" stroke-width="1.5"></path><path d="M537.01 385.99L678.96 404.08" stroke="#132e65" stroke-width="1.5"></path><path d="M537.01 385.99L381.43 379.04" stroke="#132e65" stroke-width="1.5"></path><path d="M537.01 385.99L498.78 552.33" stroke="#132e65" stroke-width="1.5"></path><path d="M537.01 385.99L663.01 257.73" stroke="#132e65" stroke-width="1.5"></path><path d="M498.78 552.33L498.78 552.33" stroke="#132e65" stroke-width="1.5"></path><path d="M498.78 552.33L552.62 641.35" stroke="#132e65" stroke-width="1.5"></path><path d="M498.78 552.33L338.58 528.13" stroke="#132e65" stroke-width="1.5"></path><path d="M498.78 552.33L644.57 646" stroke="#132e65" stroke-width="1.5"></path><path d="M498.78 552.33L345.59 647.77" stroke="#132e65" stroke-width="1.5"></path><path d="M552.62 641.35L552.62 641.35" stroke="#132e65" stroke-width="1.5"></path><path d="M552.62 641.35L644.57 646" stroke="#132e65" stroke-width="1.5"></path><path d="M552.62 641.35L704.42 545.28" stroke="#132e65" stroke-width="1.5"></path><path d="M552.62 641.35L345.59 647.77" stroke="#132e65" stroke-width="1.5"></path><path d="M552.62 641.35L338.58 528.13" stroke="#132e65" stroke-width="1.5"></path><path d="M552.62 641.35L537.01 385.99" stroke="#132e65" stroke-width="1.5"></path><path d="M663.01 257.73L663.01 257.73" stroke="#132e65" stroke-width="1.5"></path><path d="M663.01 257.73L678.96 404.08" stroke="#132e65" stroke-width="1.5"></path><path d="M663.01 257.73L824.26 237.16" stroke="#132e65" stroke-width="1.5"></path><path d="M678.96 404.08L678.96 404.08" stroke="#132e65" stroke-width="1.5"></path><path d="M678.96 404.08L704.42 545.28" stroke="#132e65" stroke-width="1.5"></path><path d="M678.96 404.08L830.9 376.14" stroke="#132e65" stroke-width="1.5"></path><path d="M678.96 404.08L824.26 237.16" stroke="#132e65" stroke-width="1.5"></path><path d="M678.96 404.08L856.98 537.99" stroke="#132e65" stroke-width="1.5"></path><path d="M704.42 545.28L704.42 545.28" stroke="#132e65" stroke-width="1.5"></path><path d="M704.42 545.28L644.57 646" stroke="#132e65" stroke-width="1.5"></path><path d="M644.57 646L644.57 646" stroke="#132e65" stroke-width="1.5"></path><path d="M846.85 99.31L846.85 99.31" stroke="#132e65" stroke-width="1.5"></path><path d="M846.85 99.31L976.61 93.41" stroke="#132e65" stroke-width="1.5"></path><path d="M846.85 99.31L824.26 237.16" stroke="#132e65" stroke-width="1.5"></path><path d="M846.85 99.31L985.58 189.66" stroke="#132e65" stroke-width="1.5"></path><path d="M824.26 237.16L824.26 237.16" stroke="#132e65" stroke-width="1.5"></path><path d="M824.26 237.16L830.9 376.14" stroke="#132e65" stroke-width="1.5"></path><path d="M824.26 237.16L985.58 189.66" stroke="#132e65" stroke-width="1.5"></path><path d="M824.26 237.16L976.61 93.41" stroke="#132e65" stroke-width="1.5"></path><path d="M830.9 376.14L830.9 376.14" stroke="#132e65" stroke-width="1.5"></path><path d="M856.98 537.99L856.98 537.99" stroke="#132e65" stroke-width="1.5"></path><path d="M856.98 537.99L957.43 521.11" stroke="#132e65" stroke-width="1.5"></path><path d="M856.98 537.99L704.42 545.28" stroke="#132e65" stroke-width="1.5"></path><path d="M856.98 537.99L969.46 656.79" stroke="#132e65" stroke-width="1.5"></path><path d="M840.17 709.43L840.17 709.43" stroke="#132e65" stroke-width="1.5"></path><path d="M840.17 709.43L969.46 656.79" stroke="#132e65" stroke-width="1.5"></path><path d="M957.73 -38.08L957.73 -38.08" stroke="#132e65" stroke-width="1.5"></path><path d="M957.73 -38.08L976.61 93.41" stroke="#132e65" stroke-width="1.5"></path><path d="M957.73 -38.08L1099.11 -49.71" stroke="#132e65" stroke-width="1.5"></path><path d="M957.73 -38.08L846.85 99.31" stroke="#132e65" stroke-width="1.5"></path><path d="M957.73 -38.08L1105.21 103.66" stroke="#132e65" stroke-width="1.5"></path><path d="M976.61 93.41L976.61 93.41" stroke="#132e65" stroke-width="1.5"></path><path d="M976.61 93.41L985.58 189.66" stroke="#132e65" stroke-width="1.5"></path><path d="M976.61 93.41L1105.21 103.66" stroke="#132e65" stroke-width="1.5"></path><path d="M985.58 189.66L985.58 189.66" stroke="#132e65" stroke-width="1.5"></path><path d="M985.58 189.66L1097.12 197.58" stroke="#132e65" stroke-width="1.5"></path><path d="M985.58 189.66L1105.21 103.66" stroke="#132e65" stroke-width="1.5"></path><path d="M990.89 392.39L990.89 392.39" stroke="#132e65" stroke-width="1.5"></path><path d="M990.89 392.39L957.43 521.11" stroke="#132e65" stroke-width="1.5"></path><path d="M990.89 392.39L830.9 376.14" stroke="#132e65" stroke-width="1.5"></path><path d="M957.43 521.11L957.43 521.11" stroke="#132e65" stroke-width="1.5"></path><path d="M957.43 521.11L969.46 656.79" stroke="#132e65" stroke-width="1.5"></path><path d="M969.46 656.79L969.46 656.79" stroke="#132e65" stroke-width="1.5"></path><path d="M1099.11 -49.71L1099.11 -49.71" stroke="#132e65" stroke-width="1.5"></path><path d="M1099.11 -49.71L1105.21 103.66" stroke="#132e65" stroke-width="1.5"></path><path d="M1099.11 -49.71L976.61 93.41" stroke="#132e65" stroke-width="1.5"></path><path d="M1099.11 -49.71L1301.23 -59.33" stroke="#132e65" stroke-width="1.5"></path><path d="M1099.11 -49.71L1253.53 99.37" stroke="#132e65" stroke-width="1.5"></path><path d="M1099.11 -49.71L1097.12 197.58" stroke="#132e65" stroke-width="1.5"></path><path d="M1105.21 103.66L1105.21 103.66" stroke="#132e65" stroke-width="1.5"></path><path d="M1105.21 103.66L1097.12 197.58" stroke="#132e65" stroke-width="1.5"></path><path d="M1097.12 197.58L1097.12 197.58" stroke="#132e65" stroke-width="1.5"></path><path d="M1097.12 197.58L976.61 93.41" stroke="#132e65" stroke-width="1.5"></path><path d="M1097.12 197.58L1253.53 99.37" stroke="#132e65" stroke-width="1.5"></path><path d="M1097.12 197.58L1277.46 254.72" stroke="#132e65" stroke-width="1.5"></path><path d="M1097.12 197.58L990.89 392.39" stroke="#132e65" stroke-width="1.5"></path><path d="M1138.66 508.98L1138.66 508.98" stroke="#132e65" stroke-width="1.5"></path><path d="M1138.66 508.98L1123.86 661.62" stroke="#132e65" stroke-width="1.5"></path><path d="M1138.66 508.98L1300.39 532.83" stroke="#132e65" stroke-width="1.5"></path><path d="M1138.66 508.98L957.43 521.11" stroke="#132e65" stroke-width="1.5"></path><path d="M1138.66 508.98L990.89 392.39" stroke="#132e65" stroke-width="1.5"></path><path d="M1138.66 508.98L1256.65 355.42" stroke="#132e65" stroke-width="1.5"></path><path d="M1138.66 508.98L969.46 656.79" stroke="#132e65" stroke-width="1.5"></path><path d="M1123.86 661.62L1123.86 661.62" stroke="#132e65" stroke-width="1.5"></path><path d="M1123.86 661.62L969.46 656.79" stroke="#132e65" stroke-width="1.5"></path><path d="M1123.86 661.62L1304.91 676.27" stroke="#132e65" stroke-width="1.5"></path><path d="M1301.23 -59.33L1301.23 -59.33" stroke="#132e65" stroke-width="1.5"></path><path d="M1301.23 -59.33L1455.8 -90.06" stroke="#132e65" stroke-width="1.5"></path><path d="M1301.23 -59.33L1253.53 99.37" stroke="#132e65" stroke-width="1.5"></path><path d="M1253.53 99.37L1253.53 99.37" stroke="#132e65" stroke-width="1.5"></path><path d="M1253.53 99.37L1105.21 103.66" stroke="#132e65" stroke-width="1.5"></path><path d="M1253.53 99.37L1277.46 254.72" stroke="#132e65" stroke-width="1.5"></path><path d="M1277.46 254.72L1277.46 254.72" stroke="#132e65" stroke-width="1.5"></path><path d="M1277.46 254.72L1256.65 355.42" stroke="#132e65" stroke-width="1.5"></path><path d="M1256.65 355.42L1256.65 355.42" stroke="#132e65" stroke-width="1.5"></path><path d="M1256.65 355.42L1300.39 532.83" stroke="#132e65" stroke-width="1.5"></path><path d="M1300.39 532.83L1300.39 532.83" stroke="#132e65" stroke-width="1.5"></path><path d="M1300.39 532.83L1304.91 676.27" stroke="#132e65" stroke-width="1.5"></path><path d="M1300.39 532.83L1443.05 503.33" stroke="#132e65" stroke-width="1.5"></path><path d="M1304.91 676.27L1304.91 676.27" stroke="#132e65" stroke-width="1.5"></path><path d="M1304.91 676.27L1415.66 681.46" stroke="#132e65" stroke-width="1.5"></path><path d="M1304.91 676.27L1443.05 503.33" stroke="#132e65" stroke-width="1.5"></path><path d="M1304.91 676.27L1138.66 508.98" stroke="#132e65" stroke-width="1.5"></path><path d="M1455.8 -90.06L1455.8 -90.06" stroke="#132e65" stroke-width="1.5"></path><path d="M1455.8 -90.06L1557.09 -70.01" stroke="#132e65" stroke-width="1.5"></path><path d="M1455.8 -90.06L1462.13 100.69" stroke="#132e65" stroke-width="1.5"></path><path d="M1455.8 -90.06L1578.4 69.18" stroke="#132e65" stroke-width="1.5"></path><path d="M1455.8 -90.06L1253.53 99.37" stroke="#132e65" stroke-width="1.5"></path><path d="M1455.8 -90.06L1583.88 205.15" stroke="#132e65" stroke-width="1.5"></path><path d="M1462.13 100.69L1462.13 100.69" stroke="#132e65" stroke-width="1.5"></path><path d="M1462.13 100.69L1578.4 69.18" stroke="#132e65" stroke-width="1.5"></path><path d="M1462.13 100.69L1448.36 248.72" stroke="#132e65" stroke-width="1.5"></path><path d="M1462.13 100.69L1583.88 205.15" stroke="#132e65" stroke-width="1.5"></path><path d="M1448.36 248.72L1448.36 248.72" stroke="#132e65" stroke-width="1.5"></path><path d="M1448.36 248.72L1583.88 205.15" stroke="#132e65" stroke-width="1.5"></path><path d="M1448.36 248.72L1457.3 410.87" stroke="#132e65" stroke-width="1.5"></path><path d="M1448.36 248.72L1277.46 254.72" stroke="#132e65" stroke-width="1.5"></path><path d="M1448.36 248.72L1572.99 395.37" stroke="#132e65" stroke-width="1.5"></path><path d="M1457.3 410.87L1457.3 410.87" stroke="#132e65" stroke-width="1.5"></path><path d="M1457.3 410.87L1443.05 503.33" stroke="#132e65" stroke-width="1.5"></path><path d="M1457.3 410.87L1572.99 395.37" stroke="#132e65" stroke-width="1.5"></path><path d="M1443.05 503.33L1443.05 503.33" stroke="#132e65" stroke-width="1.5"></path><path d="M1443.05 503.33L1544.91 530.38" stroke="#132e65" stroke-width="1.5"></path><path d="M1415.66 681.46L1415.66 681.46" stroke="#132e65" stroke-width="1.5"></path><path d="M1415.66 681.46L1591.22 694.35" stroke="#132e65" stroke-width="1.5"></path><path d="M1415.66 681.46L1443.05 503.33" stroke="#132e65" stroke-width="1.5"></path><path d="M1557.09 -70.01L1557.09 -70.01" stroke="#132e65" stroke-width="1.5"></path><path d="M1557.09 -70.01L1578.4 69.18" stroke="#132e65" stroke-width="1.5"></path><path d="M1557.09 -70.01L1462.13 100.69" stroke="#132e65" stroke-width="1.5"></path><path d="M1557.09 -70.01L1301.23 -59.33" stroke="#132e65" stroke-width="1.5"></path><path d="M1578.4 69.18L1578.4 69.18" stroke="#132e65" stroke-width="1.5"></path><path d="M1578.4 69.18L1583.88 205.15" stroke="#132e65" stroke-width="1.5"></path><path d="M1583.88 205.15L1583.88 205.15" stroke="#132e65" stroke-width="1.5"></path><path d="M1583.88 205.15L1572.99 395.37" stroke="#132e65" stroke-width="1.5"></path><path d="M1572.99 395.37L1572.99 395.37" stroke="#132e65" stroke-width="1.5"></path><path d="M1572.99 395.37L1544.91 530.38" stroke="#132e65" stroke-width="1.5"></path><path d="M1544.91 530.38L1544.91 530.38" stroke="#132e65" stroke-width="1.5"></path><path d="M1544.91 530.38L1457.3 410.87" stroke="#132e65" stroke-width="1.5"></path><path d="M1591.22 694.35L1591.22 694.35" stroke="#132e65" stroke-width="1.5"></path><path d="M1591.22 694.35L1544.91 530.38" stroke="#132e65" stroke-width="1.5"></path><path d="M1591.22 694.35L1443.05 503.33" stroke="#132e65" stroke-width="1.5"></path><path d="M1591.22 694.35L1304.91 676.27" stroke="#132e65" stroke-width="1.5"></path><path d="M1591.22 694.35L1572.99 395.37" stroke="#132e65" stroke-width="1.5"></path><path d="M1591.22 694.35L1457.3 410.87" stroke="#132e65" stroke-width="1.5"></path><circle r="5" cx="-93.79" cy="341.28" fill="#132e65"></circle><circle r="5" cx="-60.61" cy="643.28" fill="#132e65"></circle><circle r="5" cx="103.39" cy="349.68" fill="#132e65"></circle><circle r="5" cx="53.02" cy="548.41" fill="#132e65"></circle><circle r="5" cx="81.9" cy="690.88" fill="#132e65"></circle><circle r="5" cx="232.23" cy="411.81" fill="#132e65"></circle><circle r="5" cx="226.74" cy="555.41" fill="#132e65"></circle><circle r="5" cx="256.25" cy="674.09" fill="#132e65"></circle><circle r="5" cx="381.43" cy="379.04" fill="#132e65"></circle><circle r="5" cx="338.58" cy="528.13" fill="#132e65"></circle><circle r="5" cx="345.59" cy="647.77" fill="#132e65"></circle><circle r="5" cx="537.01" cy="385.99" fill="#132e65"></circle><circle r="5" cx="498.78" cy="552.33" fill="#132e65"></circle><circle r="5" cx="552.62" cy="641.35" fill="#132e65"></circle><circle r="5" cx="663.01" cy="257.73" fill="#132e65"></circle><circle r="5" cx="678.96" cy="404.08" fill="#132e65"></circle><circle r="5" cx="704.42" cy="545.28" fill="#132e65"></circle><circle r="5" cx="644.57" cy="646" fill="#132e65"></circle><circle r="5" cx="846.85" cy="99.31" fill="#132e65"></circle><circle r="5" cx="824.26" cy="237.16" fill="#132e65"></circle><circle r="5" cx="830.9" cy="376.14" fill="#132e65"></circle><circle r="5" cx="856.98" cy="537.99" fill="#132e65"></circle><circle r="5" cx="840.17" cy="709.43" fill="#132e65"></circle><circle r="5" cx="957.73" cy="-38.08" fill="#132e65"></circle><circle r="5" cx="976.61" cy="93.41" fill="#132e65"></circle><circle r="5" cx="985.58" cy="189.66" fill="#132e65"></circle><circle r="5" cx="990.89" cy="392.39" fill="#132e65"></circle><circle r="5" cx="957.43" cy="521.11" fill="#132e65"></circle><circle r="5" cx="969.46" cy="656.79" fill="#132e65"></circle><circle r="5" cx="1099.11" cy="-49.71" fill="#132e65"></circle><circle r="5" cx="1105.21" cy="103.66" fill="#132e65"></circle><circle r="5" cx="1097.12" cy="197.58" fill="#132e65"></circle><circle r="5" cx="1138.66" cy="508.98" fill="#132e65"></circle><circle r="5" cx="1123.86" cy="661.62" fill="#132e65"></circle><circle r="5" cx="1301.23" cy="-59.33" fill="#132e65"></circle><circle r="5" cx="1253.53" cy="99.37" fill="#132e65"></circle><circle r="5" cx="1277.46" cy="254.72" fill="#132e65"></circle><circle r="5" cx="1256.65" cy="355.42" fill="#132e65"></circle><circle r="5" cx="1300.39" cy="532.83" fill="#132e65"></circle><circle r="5" cx="1304.91" cy="676.27" fill="#132e65"></circle><circle r="5" cx="1455.8" cy="-90.06" fill="#132e65"></circle><circle r="5" cx="1462.13" cy="100.69" fill="#132e65"></circle><circle r="5" cx="1448.36" cy="248.72" fill="#132e65"></circle><circle r="5" cx="1457.3" cy="410.87" fill="#132e65"></circle><circle r="5" cx="1443.05" cy="503.33" fill="#132e65"></circle><circle r="5" cx="1415.66" cy="681.46" fill="#132e65"></circle><circle r="5" cx="1557.09" cy="-70.01" fill="#132e65"></circle><circle r="5" cx="1578.4" cy="69.18" fill="#132e65"></circle><circle r="5" cx="1583.88" cy="205.15" fill="#132e65"></circle><circle r="5" cx="1572.99" cy="395.37" fill="#132e65"></circle><circle r="5" cx="1544.91" cy="530.38" fill="#132e65"></circle><circle r="5" cx="1591.22" cy="694.35" fill="#132e65"></circle><path d="M-63.89 561.25L-63.89 561.25" stroke="hsl(228.5, 77.2%, 51.5%)" stroke-width="1.5"></path><path d="M-63.89 561.25L-69.74 637.9" stroke="hsl(228.5, 77.2%, 51.5%)" stroke-width="1.5"></path><path d="M-63.89 561.25L56.23 532.9" stroke="hsl(228.5, 77.2%, 51.5%)" stroke-width="1.5"></path><path d="M-63.89 561.25L218.8 531.23" stroke="hsl(228.5, 77.2%, 51.5%)" stroke-width="1.5"></path><path d="M-63.89 561.25L196.63 678.89" stroke="hsl(228.5, 77.2%, 51.5%)" stroke-width="1.5"></path><path d="M-63.89 561.25L387.92 662.67" stroke="hsl(228.5, 77.2%, 51.5%)" stroke-width="1.5"></path><path d="M-63.89 561.25L403.55 498.29" stroke="hsl(228.5, 77.2%, 51.5%)" stroke-width="1.5"></path><path d="M218.8 531.23L218.8 531.23" stroke="hsl(228.5, 77.2%, 51.5%)" stroke-width="1.5"></path><path d="M218.8 531.23L196.63 678.89" stroke="hsl(228.5, 77.2%, 51.5%)" stroke-width="1.5"></path><path d="M218.8 531.23L56.23 532.9" stroke="hsl(228.5, 77.2%, 51.5%)" stroke-width="1.5"></path><path d="M218.8 531.23L403.55 498.29" stroke="hsl(228.5, 77.2%, 51.5%)" stroke-width="1.5"></path><path d="M218.8 531.23L387.92 662.67" stroke="hsl(228.5, 77.2%, 51.5%)" stroke-width="1.5"></path><path d="M517.2 692.87L517.2 692.87" stroke="hsl(228.5, 77.2%, 51.5%)" stroke-width="1.5"></path><path d="M517.2 692.87L387.92 662.67" stroke="hsl(228.5, 77.2%, 51.5%)" stroke-width="1.5"></path><path d="M815.56 649.58L815.56 649.58" stroke="hsl(228.5, 77.2%, 51.5%)" stroke-width="1.5"></path><path d="M815.56 649.58L939.63 673.78" stroke="hsl(228.5, 77.2%, 51.5%)" stroke-width="1.5"></path><path d="M815.56 649.58L675.69 693.99" stroke="hsl(228.5, 77.2%, 51.5%)" stroke-width="1.5"></path><path d="M815.56 649.58L652.82 534.37" stroke="hsl(228.5, 77.2%, 51.5%)" stroke-width="1.5"></path><path d="M815.56 649.58L989.15 550.28" stroke="hsl(228.5, 77.2%, 51.5%)" stroke-width="1.5"></path><path d="M1000.74 235.69L1000.74 235.69" stroke="hsl(228.5, 77.2%, 51.5%)" stroke-width="1.5"></path><path d="M1000.74 235.69L1088.17 220.64" stroke="hsl(228.5, 77.2%, 51.5%)" stroke-width="1.5"></path><path d="M1000.74 235.69L996.09 354.27" stroke="hsl(228.5, 77.2%, 51.5%)" stroke-width="1.5"></path><path d="M1088.17 220.64L1088.17 220.64" stroke="hsl(228.5, 77.2%, 51.5%)" stroke-width="1.5"></path><path d="M1088.17 220.64L1140.9 108.15" stroke="hsl(228.5, 77.2%, 51.5%)" stroke-width="1.5"></path><path d="M1088.17 220.64L1157.78 349.79" stroke="hsl(228.5, 77.2%, 51.5%)" stroke-width="1.5"></path><path d="M1088.17 220.64L996.09 354.27" stroke="hsl(228.5, 77.2%, 51.5%)" stroke-width="1.5"></path><path d="M1088.17 220.64L1257.46 194.82" stroke="hsl(228.5, 77.2%, 51.5%)" stroke-width="1.5"></path><path d="M1088.17 220.64L1242.13 44.3" stroke="hsl(228.5, 77.2%, 51.5%)" stroke-width="1.5"></path><path d="M1098.14 697.79L1098.14 697.79" stroke="hsl(228.5, 77.2%, 51.5%)" stroke-width="1.5"></path><path d="M1098.14 697.79L939.63 673.78" stroke="hsl(228.5, 77.2%, 51.5%)" stroke-width="1.5"></path><path d="M1098.14 697.79L1257.03 653.27" stroke="hsl(228.5, 77.2%, 51.5%)" stroke-width="1.5"></path><path d="M1098.14 697.79L989.15 550.28" stroke="hsl(228.5, 77.2%, 51.5%)" stroke-width="1.5"></path><path d="M1098.14 697.79L1159.28 503.26" stroke="hsl(228.5, 77.2%, 51.5%)" stroke-width="1.5"></path><path d="M1098.14 697.79L1289.41 496.53" stroke="hsl(228.5, 77.2%, 51.5%)" stroke-width="1.5"></path><path d="M1098.14 697.79L815.56 649.58" stroke="hsl(228.5, 77.2%, 51.5%)" stroke-width="1.5"></path><path d="M1264.56 -70.56L1264.56 -70.56" stroke="hsl(228.5, 77.2%, 51.5%)" stroke-width="1.5"></path><path d="M1264.56 -70.56L1242.13 44.3" stroke="hsl(228.5, 77.2%, 51.5%)" stroke-width="1.5"></path><path d="M1264.56 -70.56L1403.4 -89.79" stroke="hsl(228.5, 77.2%, 51.5%)" stroke-width="1.5"></path><path d="M1264.56 -70.56L1391.77 63.31" stroke="hsl(228.5, 77.2%, 51.5%)" stroke-width="1.5"></path><path d="M1264.56 -70.56L1140.9 108.15" stroke="hsl(228.5, 77.2%, 51.5%)" stroke-width="1.5"></path><path d="M1264.56 -70.56L1257.46 194.82" stroke="hsl(228.5, 77.2%, 51.5%)" stroke-width="1.5"></path><path d="M1404.37 350.42L1404.37 350.42" stroke="hsl(228.5, 77.2%, 51.5%)" stroke-width="1.5"></path><path d="M1404.37 350.42L1278.7 382.83" stroke="hsl(228.5, 77.2%, 51.5%)" stroke-width="1.5"></path><path d="M-69.74 637.9L-69.74 637.9" stroke="hsl(228.5, 77.2%, 51.5%)" stroke-width="1.5"></path><path d="M-69.74 637.9L56.23 532.9" stroke="hsl(228.5, 77.2%, 51.5%)" stroke-width="1.5"></path><path d="M-69.74 637.9L196.63 678.89" stroke="hsl(228.5, 77.2%, 51.5%)" stroke-width="1.5"></path><path d="M-69.74 637.9L218.8 531.23" stroke="hsl(228.5, 77.2%, 51.5%)" stroke-width="1.5"></path><path d="M-69.74 637.9L387.92 662.67" stroke="hsl(228.5, 77.2%, 51.5%)" stroke-width="1.5"></path><path d="M-69.74 637.9L403.55 498.29" stroke="hsl(228.5, 77.2%, 51.5%)" stroke-width="1.5"></path><path d="M56.23 532.9L56.23 532.9" stroke="hsl(228.5, 77.2%, 51.5%)" stroke-width="1.5"></path><path d="M56.23 532.9L196.63 678.89" stroke="hsl(228.5, 77.2%, 51.5%)" stroke-width="1.5"></path><path d="M56.23 532.9L403.55 498.29" stroke="hsl(228.5, 77.2%, 51.5%)" stroke-width="1.5"></path><path d="M196.63 678.89L196.63 678.89" stroke="hsl(228.5, 77.2%, 51.5%)" stroke-width="1.5"></path><path d="M196.63 678.89L387.92 662.67" stroke="hsl(228.5, 77.2%, 51.5%)" stroke-width="1.5"></path><path d="M403.55 498.29L403.55 498.29" stroke="hsl(228.5, 77.2%, 51.5%)" stroke-width="1.5"></path><path d="M403.55 498.29L542 549.49" stroke="hsl(228.5, 77.2%, 51.5%)" stroke-width="1.5"></path><path d="M403.55 498.29L387.92 662.67" stroke="hsl(228.5, 77.2%, 51.5%)" stroke-width="1.5"></path><path d="M403.55 498.29L517.2 692.87" stroke="hsl(228.5, 77.2%, 51.5%)" stroke-width="1.5"></path><path d="M403.55 498.29L652.82 534.37" stroke="hsl(228.5, 77.2%, 51.5%)" stroke-width="1.5"></path><path d="M387.92 662.67L387.92 662.67" stroke="hsl(228.5, 77.2%, 51.5%)" stroke-width="1.5"></path><path d="M387.92 662.67L542 549.49" stroke="hsl(228.5, 77.2%, 51.5%)" stroke-width="1.5"></path><path d="M542 549.49L542 549.49" stroke="hsl(228.5, 77.2%, 51.5%)" stroke-width="1.5"></path><path d="M542 549.49L652.82 534.37" stroke="hsl(228.5, 77.2%, 51.5%)" stroke-width="1.5"></path><path d="M542 549.49L517.2 692.87" stroke="hsl(228.5, 77.2%, 51.5%)" stroke-width="1.5"></path><path d="M671.21 409.16L671.21 409.16" stroke="hsl(228.5, 77.2%, 51.5%)" stroke-width="1.5"></path><path d="M671.21 409.16L652.82 534.37" stroke="hsl(228.5, 77.2%, 51.5%)" stroke-width="1.5"></path><path d="M671.21 409.16L800.88 346.51" stroke="hsl(228.5, 77.2%, 51.5%)" stroke-width="1.5"></path><path d="M652.82 534.37L652.82 534.37" stroke="hsl(228.5, 77.2%, 51.5%)" stroke-width="1.5"></path><path d="M652.82 534.37L675.69 693.99" stroke="hsl(228.5, 77.2%, 51.5%)" stroke-width="1.5"></path><path d="M675.69 693.99L675.69 693.99" stroke="hsl(228.5, 77.2%, 51.5%)" stroke-width="1.5"></path><path d="M675.69 693.99L517.2 692.87" stroke="hsl(228.5, 77.2%, 51.5%)" stroke-width="1.5"></path><path d="M675.69 693.99L542 549.49" stroke="hsl(228.5, 77.2%, 51.5%)" stroke-width="1.5"></path><path d="M675.69 693.99L939.63 673.78" stroke="hsl(228.5, 77.2%, 51.5%)" stroke-width="1.5"></path><path d="M675.69 693.99L671.21 409.16" stroke="hsl(228.5, 77.2%, 51.5%)" stroke-width="1.5"></path><path d="M800.88 346.51L800.88 346.51" stroke="hsl(228.5, 77.2%, 51.5%)" stroke-width="1.5"></path><path d="M800.88 346.51L996.09 354.27" stroke="hsl(228.5, 77.2%, 51.5%)" stroke-width="1.5"></path><path d="M800.88 346.51L1000.74 235.69" stroke="hsl(228.5, 77.2%, 51.5%)" stroke-width="1.5"></path><path d="M800.88 346.51L652.82 534.37" stroke="hsl(228.5, 77.2%, 51.5%)" stroke-width="1.5"></path><path d="M996.09 354.27L996.09 354.27" stroke="hsl(228.5, 77.2%, 51.5%)" stroke-width="1.5"></path><path d="M996.09 354.27L1157.78 349.79" stroke="hsl(228.5, 77.2%, 51.5%)" stroke-width="1.5"></path><path d="M989.15 550.28L989.15 550.28" stroke="hsl(228.5, 77.2%, 51.5%)" stroke-width="1.5"></path><path d="M989.15 550.28L939.63 673.78" stroke="hsl(228.5, 77.2%, 51.5%)" stroke-width="1.5"></path><path d="M989.15 550.28L1159.28 503.26" stroke="hsl(228.5, 77.2%, 51.5%)" stroke-width="1.5"></path><path d="M939.63 673.78L939.63 673.78" stroke="hsl(228.5, 77.2%, 51.5%)" stroke-width="1.5"></path><path d="M1140.9 108.15L1140.9 108.15" stroke="hsl(228.5, 77.2%, 51.5%)" stroke-width="1.5"></path><path d="M1140.9 108.15L1242.13 44.3" stroke="hsl(228.5, 77.2%, 51.5%)" stroke-width="1.5"></path><path d="M1140.9 108.15L1257.46 194.82" stroke="hsl(228.5, 77.2%, 51.5%)" stroke-width="1.5"></path><path d="M1140.9 108.15L1000.74 235.69" stroke="hsl(228.5, 77.2%, 51.5%)" stroke-width="1.5"></path><path d="M1157.78 349.79L1157.78 349.79" stroke="hsl(228.5, 77.2%, 51.5%)" stroke-width="1.5"></path><path d="M1157.78 349.79L1278.7 382.83" stroke="hsl(228.5, 77.2%, 51.5%)" stroke-width="1.5"></path><path d="M1157.78 349.79L1159.28 503.26" stroke="hsl(228.5, 77.2%, 51.5%)" stroke-width="1.5"></path><path d="M1159.28 503.26L1159.28 503.26" stroke="hsl(228.5, 77.2%, 51.5%)" stroke-width="1.5"></path><path d="M1159.28 503.26L1289.41 496.53" stroke="hsl(228.5, 77.2%, 51.5%)" stroke-width="1.5"></path><path d="M1159.28 503.26L1278.7 382.83" stroke="hsl(228.5, 77.2%, 51.5%)" stroke-width="1.5"></path><path d="M1159.28 503.26L1257.03 653.27" stroke="hsl(228.5, 77.2%, 51.5%)" stroke-width="1.5"></path><path d="M1242.13 44.3L1242.13 44.3" stroke="hsl(228.5, 77.2%, 51.5%)" stroke-width="1.5"></path><path d="M1257.46 194.82L1257.46 194.82" stroke="hsl(228.5, 77.2%, 51.5%)" stroke-width="1.5"></path><path d="M1257.46 194.82L1408.09 201.46" stroke="hsl(228.5, 77.2%, 51.5%)" stroke-width="1.5"></path><path d="M1257.46 194.82L1242.13 44.3" stroke="hsl(228.5, 77.2%, 51.5%)" stroke-width="1.5"></path><path d="M1257.46 194.82L1157.78 349.79" stroke="hsl(228.5, 77.2%, 51.5%)" stroke-width="1.5"></path><path d="M1257.46 194.82L1391.77 63.31" stroke="hsl(228.5, 77.2%, 51.5%)" stroke-width="1.5"></path><path d="M1278.7 382.83L1278.7 382.83" stroke="hsl(228.5, 77.2%, 51.5%)" stroke-width="1.5"></path><path d="M1278.7 382.83L1289.41 496.53" stroke="hsl(228.5, 77.2%, 51.5%)" stroke-width="1.5"></path><path d="M1289.41 496.53L1289.41 496.53" stroke="hsl(228.5, 77.2%, 51.5%)" stroke-width="1.5"></path><path d="M1289.41 496.53L1399.45 552.07" stroke="hsl(228.5, 77.2%, 51.5%)" stroke-width="1.5"></path><path d="M1289.41 496.53L1257.03 653.27" stroke="hsl(228.5, 77.2%, 51.5%)" stroke-width="1.5"></path><path d="M1289.41 496.53L1404.37 350.42" stroke="hsl(228.5, 77.2%, 51.5%)" stroke-width="1.5"></path><path d="M1289.41 496.53L1157.78 349.79" stroke="hsl(228.5, 77.2%, 51.5%)" stroke-width="1.5"></path><path d="M1257.03 653.27L1257.03 653.27" stroke="hsl(228.5, 77.2%, 51.5%)" stroke-width="1.5"></path><path d="M1257.03 653.27L1391.3 679.6" stroke="hsl(228.5, 77.2%, 51.5%)" stroke-width="1.5"></path><path d="M1257.03 653.27L1399.45 552.07" stroke="hsl(228.5, 77.2%, 51.5%)" stroke-width="1.5"></path><path d="M1403.4 -89.79L1403.4 -89.79" stroke="hsl(228.5, 77.2%, 51.5%)" stroke-width="1.5"></path><path d="M1403.4 -89.79L1391.77 63.31" stroke="hsl(228.5, 77.2%, 51.5%)" stroke-width="1.5"></path><path d="M1391.77 63.31L1391.77 63.31" stroke="hsl(228.5, 77.2%, 51.5%)" stroke-width="1.5"></path><path d="M1391.77 63.31L1408.09 201.46" stroke="hsl(228.5, 77.2%, 51.5%)" stroke-width="1.5"></path><path d="M1391.77 63.31L1242.13 44.3" stroke="hsl(228.5, 77.2%, 51.5%)" stroke-width="1.5"></path><path d="M1408.09 201.46L1408.09 201.46" stroke="hsl(228.5, 77.2%, 51.5%)" stroke-width="1.5"></path><path d="M1408.09 201.46L1404.37 350.42" stroke="hsl(228.5, 77.2%, 51.5%)" stroke-width="1.5"></path><path d="M1408.09 201.46L1574.84 344.6" stroke="hsl(228.5, 77.2%, 51.5%)" stroke-width="1.5"></path><path d="M1408.09 201.46L1595.45 83.76" stroke="hsl(228.5, 77.2%, 51.5%)" stroke-width="1.5"></path><path d="M1408.09 201.46L1278.7 382.83" stroke="hsl(228.5, 77.2%, 51.5%)" stroke-width="1.5"></path><path d="M1399.45 552.07L1399.45 552.07" stroke="hsl(228.5, 77.2%, 51.5%)" stroke-width="1.5"></path><path d="M1399.45 552.07L1391.3 679.6" stroke="hsl(228.5, 77.2%, 51.5%)" stroke-width="1.5"></path><path d="M1391.3 679.6L1391.3 679.6" stroke="hsl(228.5, 77.2%, 51.5%)" stroke-width="1.5"></path><path d="M1391.3 679.6L1577.99 662.34" stroke="hsl(228.5, 77.2%, 51.5%)" stroke-width="1.5"></path><path d="M1391.3 679.6L1289.41 496.53" stroke="hsl(228.5, 77.2%, 51.5%)" stroke-width="1.5"></path><path d="M1391.3 679.6L1559.83 534.94" stroke="hsl(228.5, 77.2%, 51.5%)" stroke-width="1.5"></path><path d="M1391.3 679.6L1159.28 503.26" stroke="hsl(228.5, 77.2%, 51.5%)" stroke-width="1.5"></path><path d="M1568.89 -101.86L1568.89 -101.86" stroke="hsl(228.5, 77.2%, 51.5%)" stroke-width="1.5"></path><path d="M1568.89 -101.86L1403.4 -89.79" stroke="hsl(228.5, 77.2%, 51.5%)" stroke-width="1.5"></path><path d="M1568.89 -101.86L1595.45 83.76" stroke="hsl(228.5, 77.2%, 51.5%)" stroke-width="1.5"></path><path d="M1568.89 -101.86L1391.77 63.31" stroke="hsl(228.5, 77.2%, 51.5%)" stroke-width="1.5"></path><path d="M1568.89 -101.86L1264.56 -70.56" stroke="hsl(228.5, 77.2%, 51.5%)" stroke-width="1.5"></path><path d="M1568.89 -101.86L1408.09 201.46" stroke="hsl(228.5, 77.2%, 51.5%)" stroke-width="1.5"></path><path d="M1568.89 -101.86L1242.13 44.3" stroke="hsl(228.5, 77.2%, 51.5%)" stroke-width="1.5"></path><path d="M1595.45 83.76L1595.45 83.76" stroke="hsl(228.5, 77.2%, 51.5%)" stroke-width="1.5"></path><path d="M1595.45 83.76L1391.77 63.31" stroke="hsl(228.5, 77.2%, 51.5%)" stroke-width="1.5"></path><path d="M1574.84 344.6L1574.84 344.6" stroke="hsl(228.5, 77.2%, 51.5%)" stroke-width="1.5"></path><path d="M1574.84 344.6L1404.37 350.42" stroke="hsl(228.5, 77.2%, 51.5%)" stroke-width="1.5"></path><path d="M1574.84 344.6L1559.83 534.94" stroke="hsl(228.5, 77.2%, 51.5%)" stroke-width="1.5"></path><path d="M1559.83 534.94L1559.83 534.94" stroke="hsl(228.5, 77.2%, 51.5%)" stroke-width="1.5"></path><path d="M1559.83 534.94L1577.99 662.34" stroke="hsl(228.5, 77.2%, 51.5%)" stroke-width="1.5"></path><path d="M1559.83 534.94L1399.45 552.07" stroke="hsl(228.5, 77.2%, 51.5%)" stroke-width="1.5"></path><path d="M1559.83 534.94L1404.37 350.42" stroke="hsl(228.5, 77.2%, 51.5%)" stroke-width="1.5"></path><path d="M1577.99 662.34L1577.99 662.34" stroke="hsl(228.5, 77.2%, 51.5%)" stroke-width="1.5"></path><path d="M1577.99 662.34L1399.45 552.07" stroke="hsl(228.5, 77.2%, 51.5%)" stroke-width="1.5"></path><path d="M1577.99 662.34L1574.84 344.6" stroke="hsl(228.5, 77.2%, 51.5%)" stroke-width="1.5"></path><path d="M1577.99 662.34L1257.03 653.27" stroke="hsl(228.5, 77.2%, 51.5%)" stroke-width="1.5"></path><circle r="25" cx="-63.89" cy="561.25" fill="url(#SvgjsRadialGradient1061)"></circle><circle r="25" cx="218.8" cy="531.23" fill="url(#SvgjsRadialGradient1061)"></circle><circle r="25" cx="517.2" cy="692.87" fill="url(#SvgjsRadialGradient1061)"></circle><circle r="25" cx="815.56" cy="649.58" fill="url(#SvgjsRadialGradient1061)"></circle><circle r="25" cx="1000.74" cy="235.69" fill="url(#SvgjsRadialGradient1061)"></circle><circle r="25" cx="1088.17" cy="220.64" fill="url(#SvgjsRadialGradient1061)"></circle><circle r="25" cx="1098.14" cy="697.79" fill="url(#SvgjsRadialGradient1061)"></circle><circle r="25" cx="1264.56" cy="-70.56" fill="url(#SvgjsRadialGradient1061)"></circle><circle r="25" cx="1404.37" cy="350.42" fill="url(#SvgjsRadialGradient1061)"></circle><circle r="5" cx="-69.74" cy="637.9" fill="#8b9ad9"></circle><circle r="5" cx="56.23" cy="532.9" fill="#8b9ad9"></circle><circle r="5" cx="196.63" cy="678.89" fill="#8b9ad9"></circle><circle r="5" cx="403.55" cy="498.29" fill="#8b9ad9"></circle><circle r="5" cx="387.92" cy="662.67" fill="#8b9ad9"></circle><circle r="5" cx="542" cy="549.49" fill="#8b9ad9"></circle><circle r="5" cx="671.21" cy="409.16" fill="#8b9ad9"></circle><circle r="5" cx="652.82" cy="534.37" fill="#8b9ad9"></circle><circle r="5" cx="675.69" cy="693.99" fill="#8b9ad9"></circle><circle r="5" cx="800.88" cy="346.51" fill="#8b9ad9"></circle><circle r="5" cx="996.09" cy="354.27" fill="#8b9ad9"></circle><circle r="5" cx="989.15" cy="550.28" fill="#8b9ad9"></circle><circle r="5" cx="939.63" cy="673.78" fill="#8b9ad9"></circle><circle r="5" cx="1140.9" cy="108.15" fill="#8b9ad9"></circle><circle r="5" cx="1157.78" cy="349.79" fill="#8b9ad9"></circle><circle r="5" cx="1159.28" cy="503.26" fill="#8b9ad9"></circle><circle r="5" cx="1242.13" cy="44.3" fill="#8b9ad9"></circle><circle r="5" cx="1257.46" cy="194.82" fill="#8b9ad9"></circle><circle r="5" cx="1278.7" cy="382.83" fill="#8b9ad9"></circle><circle r="5" cx="1289.41" cy="496.53" fill="#8b9ad9"></circle><circle r="5" cx="1257.03" cy="653.27" fill="#8b9ad9"></circle><circle r="5" cx="1403.4" cy="-89.79" fill="#8b9ad9"></circle><circle r="5" cx="1391.77" cy="63.31" fill="#8b9ad9"></circle><circle r="5" cx="1408.09" cy="201.46" fill="#8b9ad9"></circle><circle r="5" cx="1399.45" cy="552.07" fill="#8b9ad9"></circle><circle r="5" cx="1391.3" cy="679.6" fill="#8b9ad9"></circle><circle r="5" cx="1568.89" cy="-101.86" fill="#8b9ad9"></circle><circle r="5" cx="1595.45" cy="83.76" fill="#8b9ad9"></circle><circle r="5" cx="1574.84" cy="344.6" fill="#8b9ad9"></circle><circle r="5" cx="1559.83" cy="534.94" fill="#8b9ad9"></circle><circle r="5" cx="1577.99" cy="662.34" fill="#8b9ad9"></circle></g><defs><mask id="SvgjsMask1060"><rect width="1437" height="563" fill="#ffffff"></rect></mask><radialGradient id="SvgjsRadialGradient1061"><stop stop-color="#ffffff" offset="0.1"></stop><stop stop-color="#1735b3" offset="0.2"></stop><stop stop-color="rgba(23, 53, 179, 0)" offset="1"></stop></radialGradient></defs></svg>